<?xml version="1.0" standalone="yes"?>
<svg xmlns="http://www.w3.org/2000/svg" width="1152" height="648">
<!-- <path style="fill:#ffffff; stroke:none;" d="M0 0L0 648L1152 648L1152 0L0 0z"/> -->
<path style="fill:#7193bf; stroke:none;" d="M556 216C539.405 180.936 520.917 147.412 486 127.427C424.213 92.0641 357.119 131.672 340.745 197C320.228 278.859 365.696 368.939 418.285 429C446.814 461.583 480.395 489.259 517 512.319C526.298 518.176 544.612 533.122 556 532.397C564.256 531.871 575.047 523.77 582 519.6C602.974 507.023 622.936 493.335 642 477.999C657.13 465.828 671.794 452.407 684.83 438C728.187 390.083 762.735 331.742 772.272 267C776.914 235.484 775.688 202.348 761.88 173C756.329 161.2 749.168 150.304 739.985 141.004C733.034 133.963 724.844 128.034 716 123.602C661.713 96.3922 604.739 130.128 575.053 177C567.813 188.431 558.398 202.507 556 216z"/>
<!-- <path style="fill:#ffffff; stroke:none;" d="M425 119.428C368.117 127.578 340.916 184.485 341 237C341.149 329.941 402.471 415.986 471 473.08C490.013 488.921 510.528 503.262 532 515.573C538.133 519.088 548.691 527.467 556 526.972C564.281 526.412 575.008 517.97 582 513.799C604.126 500.603 625.46 485.832 645 469C660.884 455.317 675.926 440.806 689.714 425C701.001 412.062 711.163 398.282 720.667 384C763.693 319.343 799.95 207.954 735.985 144.015C689.092 97.1398 622.026 122.664 586.654 169C576.827 181.874 569.458 196.328 562.769 211C561.587 213.593 558.995 224.072 555.117 223.369C551.513 222.716 549.523 213.881 548.281 211C543.021 198.802 536.736 187.041 529.329 176C506.475 141.932 468.168 113.244 425 119.428z"/> -->
<path style="fill:#fff301; stroke:none;" d="M527 240L527 241L548 239C541.541 236.29 533.562 238.646 527 240M558 238L558 239L579 241C572.747 237.071 565.094 238 558 238M424 336L425 336C440.205 289.365 479.722 255.035 526 242C517.166 238.405 500.845 248.366 493 252.461C468.348 265.327 447.994 286.822 434.626 311C430.385 318.671 425.1 327.172 424 336M580 241L580 242L606 250C600.511 244.145 587.808 241.183 580 241z"/>
<path style="fill:#23b14d; stroke:none;" d="M547 249.424C539.756 250.375 533.101 250.339 526 252.424C509.538 257.259 494.135 273.538 515.286 285.005C529.964 292.963 550.7 294.023 567 291.7C572.012 290.985 577.2 289.661 582 288.065C596.329 283.299 608.687 268.918 591.995 257.999C580.049 250.184 560.956 247.592 547 249.424z"/>
<path style="fill:#fff301; stroke:none;" d="M607 250L639.535 273L670 309C662.823 289.398 642.26 270.606 625.086 259.544C619.392 255.877 613.689 251.53 607 250z"/>
<path style="fill:#b97b57; stroke:none;" d="M532 291L532 336L533 336L534 291L532 291M565 292C564.304 308.216 561.126 323.242 567 339L568 339L565 309L565 292z"/>
<path style="fill:#fff301; stroke:none;" d="M670 310L684 343L685 343C684.069 333.709 677.836 315.483 670 310M423 337L421 344L422 344L423 337z"/>
<path style="fill:#b97b57; stroke:none;" d="M531 337C520.147 356.797 502.57 359.168 482 363L482 364C495.336 363.991 512.445 360.203 522.96 351.525C526.841 348.321 532.427 342.355 531 337M568 339L571 343L568 339M571 343L577 349L571 343z"/>
<path style="fill:#fff301; stroke:none;" d="M685 344L687 353L688 353L685 344M420 345L415 372L416 372L420 345z"/>
<path style="fill:#b97b57; stroke:none;" d="M577 349L577 351L580 351L580 349L577 349M580 351L580 352L591 355L591 354L580 351z"/>
<path style="fill:#fff301; stroke:none;" d="M688 354L691 372L692 372L688 354z"/>
<path style="fill:#b97b57; stroke:none;" d="M592 355L592 356L605 358L592 355M607 358L607 359L636 360L636 358L607 358M457 366L457 367L480 365L457 366z"/>
</svg>
